<?xml version="1.0" encoding="utf-8"?>
 <svg version="1.1" id="Capa_1" xmlns="http://www.w3.org/2000/svg" xmlns:xlink="http://www.w3.org/1999/xlink" x="0px" y="0px"
	 viewBox="0 0 33 33" style="enable-background:new 0 0 33 33;" xml:space="preserve">
<g>
	<path d="M28.3,32.4H5.1c-0.1,0-0.3-0.1-0.4-0.2S4.6,32,4.6,31.9L5.7,8.7c0-0.3,0.2-0.5,0.5-0.5h21c0.3,0,0.5,0.2,0.5,0.5l1.1,23.2
		c0,0.1,0,0.3-0.1,0.4C28.6,32.4,28.4,32.4,28.3,32.4z M6.1,31.1h21.3l-1-21.4H7.1L6.1,31.1z"/>
	<path d="M22.3,12c-0.3,0-0.5-0.2-0.5-0.5V6.7c0-2.7-2.2-4.8-4.8-4.8S12.2,4,12.2,6.7v4.9c0,0.3-0.2,0.5-0.5,0.5s-0.5-0.2-0.5-0.5
		V6.7c0-3.2,2.6-5.8,5.8-5.8s5.8,2.6,5.8,5.8v4.9C22.8,11.8,22.6,12,22.3,12z"/>
</g>
</svg>
